Coordinates
version=1
nRows=54
nColumns=12
inDegrees=yes

Units are S.I. units (second, meters, Newtons, ...)
Angles are in degrees

endheader
time	SC_y	SC_z	SC_x	AC_y	AC_z	AC_x	GH_y	GH_z	GH_yy	EL_x	PS_y
       0.0              -23.38          7.727          6.698          67.99          3.357         -8.954          67.19          12.75         -112.8          60.16          89.59
   0.03138              -23.38          7.728          6.709          67.99          3.357         -8.954          67.16          12.75         -112.7          60.17           89.6
   0.06276              -23.37          7.729           6.72          67.99          3.356         -8.954          67.13          12.76         -112.7          60.17          89.62
   0.09415              -23.37           7.73          6.732          67.99          3.356         -8.954           67.1          12.76         -112.7          60.17          89.63
    0.1255              -23.37          7.731          6.745          67.99          3.355         -8.954          67.07          12.76         -112.7          60.17          89.64
    0.1569              -23.37          7.732          6.759          67.99          3.355         -8.954          67.03          12.76         -112.7          60.17          89.65
    0.1883              -23.37          7.734          6.773          67.99          3.354         -8.953          66.99          12.76         -112.7          60.17          89.67
    0.2197              -23.37          7.735          6.789          67.99          3.354         -8.953          66.95          12.77         -112.7          60.17          89.68
    0.2511              -23.36          7.736          6.806          67.99          3.353         -8.953          66.91          12.77         -112.7          60.17           89.7
    0.2824              -23.36          7.738          6.824          67.99          3.352         -8.953          66.86          12.77         -112.7          60.17          89.72
    0.3138              -23.36           7.74          6.843          67.99          3.352         -8.953          66.81          12.78         -112.7          60.17          89.73
    0.3452              -23.36          7.741          6.864          67.99          3.351         -8.952          66.75          12.78         -112.7          60.17          89.75
    0.3766              -23.36          7.743          6.886          67.99           3.35         -8.952           66.7          12.78         -112.7          60.18          89.78
     0.408              -23.35          7.746           6.91          67.99          3.349         -8.952          66.63          12.79         -112.7          60.18           89.8
    0.4394              -23.35          7.748          6.936          67.99          3.348         -8.952          66.56          12.79         -112.7          60.18          89.82
    0.4707              -23.35           7.75          6.964          67.99          3.347         -8.951          66.49          12.79         -112.7          60.18          89.85
    0.5021              -23.34          7.753          6.995          67.99          3.346         -8.951          66.41           12.8         -112.7          60.18          89.88
    0.5335              -23.34          7.756          7.029          67.99          3.345          -8.95          66.32           12.8         -112.7          60.18          89.91
    0.5649              -23.34          7.759          7.065          67.99          3.343          -8.95          66.22          12.81         -112.7          60.19          89.95
    0.5963              -23.33          7.763          7.105          67.99          3.342          -8.95          66.12          12.82         -112.7          60.19          89.99
    0.6276              -23.33          7.767          7.149          67.99           3.34         -8.949           66.0          12.82         -112.7          60.19          90.03
     0.659              -23.32          7.771          7.198          67.99          3.338         -8.948          65.87          12.83         -112.7           60.2          90.08
    0.6904              -23.32          7.776          7.251          67.99          3.336         -8.948          65.73          12.84         -112.6           60.2          90.13
    0.7218              -23.31          7.781           7.31          67.99          3.334         -8.947          65.57          12.85         -112.6           60.2          90.18
    0.7532               -23.3          7.787          7.376          67.99          3.332         -8.946           65.4          12.86         -112.6          60.21          90.25
    0.7846              -23.29          7.793          7.449          67.99          3.329         -8.945          65.21          12.87         -112.6          60.21          90.32
    0.8159              -23.29            7.8          7.532          67.99          3.326         -8.944          64.99          12.88         -112.6          60.22           90.4
    0.8473              -23.28          7.808          7.624          67.99          3.323         -8.943          64.74           12.9         -112.6          60.22          90.49
    0.8787              -23.26          7.818          7.729          67.99          3.319         -8.942          64.47          12.91         -112.6          60.23          90.59
    0.9101              -23.25          7.828          7.848          67.99          3.314         -8.941          64.15          12.93         -112.5          60.24           90.7
    0.9415              -23.24           7.84          7.983          67.99          3.309         -8.939          63.79          12.95         -112.5          60.24          90.83
    0.9729              -23.22          7.854          8.139          67.99          3.303         -8.937          63.38          12.98         -112.5          60.25          90.98
     1.004               -23.2           7.87          8.318          67.99          3.297         -8.935          62.91          13.01         -112.4          60.26          91.16
     1.036              -23.18          7.888          8.527           68.0          3.289         -8.933          62.36          13.04         -112.4          60.28          91.36
     1.067              -23.15          7.909          8.771           68.0           3.28          -8.93          61.71          13.08         -112.4          60.29          91.59
     1.098              -23.12          7.935          9.059           68.0          3.269         -8.926          60.95          13.12         -112.3          60.31          91.87
      1.13              -23.08          7.965          9.401           68.0          3.256         -8.922          60.05          13.17         -112.2          60.33           92.2
     1.161              -23.04          8.001          9.811           68.0          3.241         -8.917          58.96          13.24         -112.2          60.36          92.59
     1.193              -22.98          8.045          10.31           68.0          3.222         -8.911          57.65          13.31         -112.1          60.39          93.07
     1.224              -22.91          8.098          10.91           68.0            3.2         -8.904          56.05          13.41         -112.0          60.42          93.65
     1.255              -22.83          8.164          11.66           68.0          3.172         -8.895          54.07          13.53         -111.8          60.47          94.37
     1.287              -22.73          8.246          12.59           68.0          3.137         -8.884          51.61          13.67         -111.6          60.53          95.27
     1.318               -22.6           8.35          13.77          68.01          3.093          -8.87           48.5          13.85         -111.4           60.6          96.41
     1.349              -22.44          8.481          15.26          68.01          3.037         -8.852          44.56          14.09         -111.1          60.69          97.84
     1.381              -22.23           8.65          17.17          68.01          2.966         -8.829           39.5          14.38         -110.8          60.81          99.69
     1.412              -21.96          8.866          19.63          68.02          2.874           -8.8          33.02          14.77         -110.3          60.96          102.0
     1.444              -21.61          9.142          22.76          68.03          2.757         -8.762          24.74          15.25         -109.7          61.15          105.1
     1.475              -21.18          9.489           26.7          68.03           2.61         -8.715          14.32          15.87         -109.0           61.4          108.9
     1.506              -20.65          9.912           31.5          68.04           2.43         -8.658          1.634          16.62         -108.0          61.69          113.5
     1.538              -20.04           10.4          37.06          68.06          2.222         -8.592         -13.08          17.48         -107.0          62.03          118.8
     1.569              -19.38          10.93          43.09          68.07          1.997          -8.52          -29.0          18.42         -105.9           62.4          124.7
       1.6              -18.72          11.46          49.12          68.08          1.772         -8.448         -44.93          19.36         -104.7          62.78          130.5
     1.632              -18.11          11.95          54.68          68.09          1.564         -8.381         -59.64          20.23         -103.7          63.12          135.8
     1.663              -17.58          12.38          59.48           68.1          1.384         -8.324         -72.33          20.97         -102.7          63.41          140.4
